<mxfile host="Electron" agent="Mozilla/5.0 (Windows NT 10.0; Win64; x64) AppleWebKit/537.36 (KHTML, like Gecko) draw.io/26.0.4 Chrome/128.0.6613.186 Electron/32.2.5 Safari/537.36" version="26.0.4" pages="2">
  <diagram id="EZjYjFrGr3VQ2C8jx9l8" name="Verifying Access">
    <mxGraphModel dx="1430" dy="826" grid="1" gridSize="10" guides="1" tooltips="1" connect="1" arrows="1" fold="1" page="1" pageScale="1" pageWidth="1169" pageHeight="827" math="0" shadow="0">
      <root>
        <mxCell id="0" />
        <mxCell id="1" parent="0" />
        <mxCell id="rPGcQnAlgHCy1FKVBELK-1" value="Статусная модель работы с заказом" style="shape=umlFrame;whiteSpace=wrap;html=1;width=350;height=20;boundedLbl=1;verticalAlign=middle;align=left;spacingLeft=5;fontColor=#000000;fillColor=default;" parent="1" vertex="1">
          <mxGeometry x="40" y="50" width="740" height="570" as="geometry" />
        </mxCell>
        <mxCell id="kXk7Uv5nTHSRlfoIUjbw-7" value="" style="edgeStyle=orthogonalEdgeStyle;rounded=0;orthogonalLoop=1;jettySize=auto;html=1;entryX=0.5;entryY=0;entryDx=0;entryDy=0;" edge="1" parent="1" source="EBJb9w3WNIuZBFXNLwwq-1" target="vi0d4vRS0HggPI3whx-H-1">
          <mxGeometry relative="1" as="geometry" />
        </mxCell>
        <UserObject label="" link="data:page/id,dgASi5IdcRmSLp45i_bj" id="EBJb9w3WNIuZBFXNLwwq-1">
          <mxCell style="ellipse;fillColor=#000000;strokeColor=none;" parent="1" vertex="1">
            <mxGeometry x="165" y="90" width="30" height="30" as="geometry" />
          </mxCell>
        </UserObject>
        <mxCell id="vi0d4vRS0HggPI3whx-H-4" value="" style="edgeStyle=orthogonalEdgeStyle;rounded=0;orthogonalLoop=1;jettySize=auto;html=1;" parent="1" source="vi0d4vRS0HggPI3whx-H-1" target="vi0d4vRS0HggPI3whx-H-3" edge="1">
          <mxGeometry x="-0.2593" y="20" relative="1" as="geometry">
            <mxPoint as="offset" />
          </mxGeometry>
        </mxCell>
        <mxCell id="ZW06rnSiX9Yk8SDodGn0-7" style="edgeStyle=orthogonalEdgeStyle;rounded=0;orthogonalLoop=1;jettySize=auto;html=1;exitX=1;exitY=0.5;exitDx=0;exitDy=0;entryX=0.5;entryY=0;entryDx=0;entryDy=0;" parent="1" source="vi0d4vRS0HggPI3whx-H-1" target="ZW06rnSiX9Yk8SDodGn0-2" edge="1">
          <mxGeometry relative="1" as="geometry">
            <mxPoint x="350" y="200" as="targetPoint" />
            <Array as="points">
              <mxPoint x="680" y="170" />
            </Array>
          </mxGeometry>
        </mxCell>
        <mxCell id="PzxShNgPtXf2Yx0DU02M-6" value="Пользователь отменил заказ" style="edgeLabel;html=1;align=center;verticalAlign=middle;resizable=0;points=[];" parent="ZW06rnSiX9Yk8SDodGn0-7" vertex="1" connectable="0">
          <mxGeometry x="-0.45" relative="1" as="geometry">
            <mxPoint x="53" y="-10" as="offset" />
          </mxGeometry>
        </mxCell>
        <mxCell id="vi0d4vRS0HggPI3whx-H-1" value="Новый&lt;br&gt;(заказ создан)" style="html=1;align=center;verticalAlign=top;rounded=1;absoluteArcSize=1;arcSize=10;dashed=0;" parent="1" vertex="1">
          <mxGeometry x="80" y="150" width="200" height="40" as="geometry" />
        </mxCell>
        <mxCell id="vi0d4vRS0HggPI3whx-H-3" value="В обработке&lt;div&gt;(проверяем наличие товара&lt;/div&gt;&lt;div&gt;&amp;nbsp;и баланс)&lt;/div&gt;" style="html=1;align=center;verticalAlign=top;rounded=1;absoluteArcSize=1;arcSize=10;dashed=0;" parent="1" vertex="1">
          <mxGeometry x="80" y="220" width="200" height="50" as="geometry" />
        </mxCell>
        <mxCell id="kXk7Uv5nTHSRlfoIUjbw-5" value="" style="edgeStyle=orthogonalEdgeStyle;rounded=0;orthogonalLoop=1;jettySize=auto;html=1;" edge="1" parent="1" source="vi0d4vRS0HggPI3whx-H-7" target="ZW06rnSiX9Yk8SDodGn0-4">
          <mxGeometry relative="1" as="geometry" />
        </mxCell>
        <mxCell id="vi0d4vRS0HggPI3whx-H-7" value="Оплачен&lt;div&gt;(Товар забронирован&amp;nbsp;&lt;span style=&quot;background-color: transparent; color: light-dark(rgb(0, 0, 0), rgb(255, 255, 255));&quot;&gt;и&amp;nbsp;&lt;/span&gt;&lt;/div&gt;&lt;div&gt;&lt;span style=&quot;background-color: transparent; color: light-dark(rgb(0, 0, 0), rgb(255, 255, 255));&quot;&gt;сумма на счете зарезервирована)&lt;/span&gt;&lt;/div&gt;" style="html=1;align=center;verticalAlign=top;rounded=1;absoluteArcSize=1;arcSize=10;dashed=0;" parent="1" vertex="1">
          <mxGeometry x="80" y="290" width="200" height="60" as="geometry" />
        </mxCell>
        <mxCell id="ZW06rnSiX9Yk8SDodGn0-2" value="Отменен" style="html=1;align=center;verticalAlign=top;rounded=1;absoluteArcSize=1;arcSize=10;dashed=0;" parent="1" vertex="1">
          <mxGeometry x="610" y="225" width="140" height="40" as="geometry" />
        </mxCell>
        <mxCell id="ZW06rnSiX9Yk8SDodGn0-4" value="Отправлен&lt;div&gt;(заказ передан в доставку,&amp;nbsp;&lt;/div&gt;&lt;div&gt;получен номер для отслеживания)&lt;/div&gt;" style="html=1;align=center;verticalAlign=top;rounded=1;absoluteArcSize=1;arcSize=10;dashed=0;" parent="1" vertex="1">
          <mxGeometry x="80" y="380" width="200" height="60" as="geometry" />
        </mxCell>
        <UserObject label="" link="data:page/id,dgASi5IdcRmSLp45i_bj" id="ZW06rnSiX9Yk8SDodGn0-13">
          <mxCell style="ellipse;html=1;shape=endState;fillColor=#000000;strokeColor=#000000;" parent="1" vertex="1">
            <mxGeometry x="165" y="560" width="30" height="30" as="geometry" />
          </mxCell>
        </UserObject>
        <mxCell id="kXk7Uv5nTHSRlfoIUjbw-1" value="Нет товара или не достаточный баланс." style="edgeStyle=orthogonalEdgeStyle;rounded=0;orthogonalLoop=1;jettySize=auto;html=1;entryX=0;entryY=0.5;entryDx=0;entryDy=0;exitX=1;exitY=0.5;exitDx=0;exitDy=0;" edge="1" parent="1" source="vi0d4vRS0HggPI3whx-H-3" target="ZW06rnSiX9Yk8SDodGn0-2">
          <mxGeometry x="-0.0435" y="10" relative="1" as="geometry">
            <mxPoint as="offset" />
            <mxPoint x="590" y="170" as="sourcePoint" />
            <mxPoint x="201" y="541" as="targetPoint" />
            <Array as="points" />
          </mxGeometry>
        </mxCell>
        <mxCell id="kXk7Uv5nTHSRlfoIUjbw-2" value="" style="edgeStyle=orthogonalEdgeStyle;rounded=0;orthogonalLoop=1;jettySize=auto;html=1;exitX=0.5;exitY=1;exitDx=0;exitDy=0;entryX=0.5;entryY=0;entryDx=0;entryDy=0;" edge="1" parent="1" source="vi0d4vRS0HggPI3whx-H-3" target="vi0d4vRS0HggPI3whx-H-7">
          <mxGeometry x="-0.2593" y="20" relative="1" as="geometry">
            <mxPoint as="offset" />
            <mxPoint x="190" y="200" as="sourcePoint" />
            <mxPoint x="190" y="310" as="targetPoint" />
          </mxGeometry>
        </mxCell>
        <mxCell id="kXk7Uv5nTHSRlfoIUjbw-3" value="Пользователь отменил заказ или нет возможности доставить" style="edgeStyle=orthogonalEdgeStyle;rounded=0;orthogonalLoop=1;jettySize=auto;html=1;entryX=0.5;entryY=1;entryDx=0;entryDy=0;exitX=1;exitY=0.5;exitDx=0;exitDy=0;" edge="1" parent="1" source="vi0d4vRS0HggPI3whx-H-7" target="ZW06rnSiX9Yk8SDodGn0-2">
          <mxGeometry x="-0.0435" y="10" relative="1" as="geometry">
            <mxPoint as="offset" />
            <mxPoint x="310" y="435" as="sourcePoint" />
            <mxPoint x="710" y="430" as="targetPoint" />
            <Array as="points">
              <mxPoint x="680" y="320" />
            </Array>
          </mxGeometry>
        </mxCell>
        <mxCell id="kXk7Uv5nTHSRlfoIUjbw-6" value="" style="edgeStyle=orthogonalEdgeStyle;rounded=0;orthogonalLoop=1;jettySize=auto;html=1;" edge="1" parent="1" source="kXk7Uv5nTHSRlfoIUjbw-4" target="ZW06rnSiX9Yk8SDodGn0-13">
          <mxGeometry relative="1" as="geometry" />
        </mxCell>
        <mxCell id="kXk7Uv5nTHSRlfoIUjbw-4" value="Доставлен" style="html=1;align=center;verticalAlign=top;rounded=1;absoluteArcSize=1;arcSize=10;dashed=0;" vertex="1" parent="1">
          <mxGeometry x="80" y="470" width="200" height="40" as="geometry" />
        </mxCell>
      </root>
    </mxGraphModel>
  </diagram>
  <diagram id="JKd4vY2PccsirPRPme6_" name="Reconnecting">
    <mxGraphModel dx="2074" dy="1197" grid="1" gridSize="10" guides="1" tooltips="1" connect="1" arrows="1" fold="1" page="1" pageScale="1" pageWidth="1169" pageHeight="827" math="0" shadow="0">
      <root>
        <mxCell id="0" />
        <mxCell id="1" parent="0" />
        <mxCell id="C12eUxMGgNv5EMjZ2_0J-2" style="edgeStyle=orthogonalEdgeStyle;rounded=0;orthogonalLoop=1;jettySize=auto;html=1;" parent="1" source="_ona8Ecr7LBRRXpukymA-1" edge="1">
          <mxGeometry relative="1" as="geometry">
            <mxPoint x="200" y="320" as="targetPoint" />
          </mxGeometry>
        </mxCell>
        <mxCell id="_ona8Ecr7LBRRXpukymA-1" value="" style="ellipse;fillColor=#000000;strokeColor=none;" parent="1" vertex="1">
          <mxGeometry x="80" y="305" width="30" height="30" as="geometry" />
        </mxCell>
        <mxCell id="_ona8Ecr7LBRRXpukymA-2" value="Reconnecting, Locked" style="html=1;align=center;verticalAlign=top;rounded=1;absoluteArcSize=1;arcSize=10;dashed=0;fillColor=none;" parent="1" vertex="1">
          <mxGeometry x="200" y="150" width="840" height="320" as="geometry" />
        </mxCell>
        <mxCell id="_ona8Ecr7LBRRXpukymA-7" style="edgeStyle=orthogonalEdgeStyle;rounded=0;orthogonalLoop=1;jettySize=auto;html=1;" parent="1" source="_ona8Ecr7LBRRXpukymA-3" target="_ona8Ecr7LBRRXpukymA-4" edge="1">
          <mxGeometry relative="1" as="geometry" />
        </mxCell>
        <mxCell id="_ona8Ecr7LBRRXpukymA-3" value="" style="ellipse;fillColor=#000000;strokeColor=none;" parent="1" vertex="1">
          <mxGeometry x="270" y="230" width="30" height="30" as="geometry" />
        </mxCell>
        <mxCell id="2e3wcNazp82CeaKeVhul-2" style="edgeStyle=orthogonalEdgeStyle;rounded=0;orthogonalLoop=1;jettySize=auto;html=1;" parent="1" source="_ona8Ecr7LBRRXpukymA-4" target="2e3wcNazp82CeaKeVhul-1" edge="1">
          <mxGeometry relative="1" as="geometry">
            <Array as="points">
              <mxPoint x="450" y="285" />
            </Array>
          </mxGeometry>
        </mxCell>
        <mxCell id="2e3wcNazp82CeaKeVhul-3" value="success [connection established]" style="edgeLabel;html=1;align=center;verticalAlign=middle;resizable=0;points=[];" parent="2e3wcNazp82CeaKeVhul-2" vertex="1" connectable="0">
          <mxGeometry x="-0.9581" y="-1" relative="1" as="geometry">
            <mxPoint as="offset" />
          </mxGeometry>
        </mxCell>
        <mxCell id="_ona8Ecr7LBRRXpukymA-4" value="Establishing Connection" style="html=1;align=center;verticalAlign=top;rounded=1;absoluteArcSize=1;arcSize=10;dashed=0;fillColor=none;" parent="1" vertex="1">
          <mxGeometry x="380" y="225" width="140" height="40" as="geometry" />
        </mxCell>
        <mxCell id="_ona8Ecr7LBRRXpukymA-5" style="edgeStyle=orthogonalEdgeStyle;rounded=0;orthogonalLoop=1;jettySize=auto;html=1;" parent="1" source="_ona8Ecr7LBRRXpukymA-4" target="_ona8Ecr7LBRRXpukymA-4" edge="1">
          <mxGeometry relative="1" as="geometry">
            <Array as="points">
              <mxPoint x="560" y="250" />
              <mxPoint x="530" y="200" />
            </Array>
          </mxGeometry>
        </mxCell>
        <mxCell id="_ona8Ecr7LBRRXpukymA-6" value="failed [no connection] /wait 5 seconds /connect" style="edgeLabel;html=1;align=center;verticalAlign=middle;resizable=0;points=[];" parent="_ona8Ecr7LBRRXpukymA-5" vertex="1" connectable="0">
          <mxGeometry x="-0.5289" y="-2" relative="1" as="geometry">
            <mxPoint x="78" as="offset" />
          </mxGeometry>
        </mxCell>
        <mxCell id="_ona8Ecr7LBRRXpukymA-10" style="edgeStyle=orthogonalEdgeStyle;rounded=0;orthogonalLoop=1;jettySize=auto;html=1;" parent="1" source="_ona8Ecr7LBRRXpukymA-8" target="_ona8Ecr7LBRRXpukymA-9" edge="1">
          <mxGeometry relative="1" as="geometry" />
        </mxCell>
        <mxCell id="_ona8Ecr7LBRRXpukymA-8" value="" style="ellipse;fillColor=#000000;strokeColor=none;" parent="1" vertex="1">
          <mxGeometry x="270" y="389" width="30" height="30" as="geometry" />
        </mxCell>
        <mxCell id="_ona8Ecr7LBRRXpukymA-12" style="edgeStyle=orthogonalEdgeStyle;rounded=0;orthogonalLoop=1;jettySize=auto;html=1;" parent="1" source="_ona8Ecr7LBRRXpukymA-9" target="_ona8Ecr7LBRRXpukymA-11" edge="1">
          <mxGeometry relative="1" as="geometry" />
        </mxCell>
        <mxCell id="C12eUxMGgNv5EMjZ2_0J-1" value="key presented [valid RFID code] /verify access" style="edgeLabel;html=1;align=center;verticalAlign=middle;resizable=0;points=[];" parent="_ona8Ecr7LBRRXpukymA-12" vertex="1" connectable="0">
          <mxGeometry x="-0.6889" y="-1" relative="1" as="geometry">
            <mxPoint x="76" y="-11" as="offset" />
          </mxGeometry>
        </mxCell>
        <mxCell id="_ona8Ecr7LBRRXpukymA-9" value="Listening" style="html=1;align=center;verticalAlign=top;rounded=1;absoluteArcSize=1;arcSize=10;fillColor=none;" parent="1" vertex="1">
          <mxGeometry x="380" y="384" width="140" height="40" as="geometry" />
        </mxCell>
        <mxCell id="2e3wcNazp82CeaKeVhul-5" style="edgeStyle=orthogonalEdgeStyle;rounded=0;orthogonalLoop=1;jettySize=auto;html=1;" parent="1" source="_ona8Ecr7LBRRXpukymA-11" target="_ona8Ecr7LBRRXpukymA-9" edge="1">
          <mxGeometry relative="1" as="geometry">
            <Array as="points">
              <mxPoint x="960" y="404" />
              <mxPoint x="960" y="360" />
              <mxPoint x="450" y="360" />
            </Array>
          </mxGeometry>
        </mxCell>
        <UserObject label="Verifying Access &lt;br&gt;via Internal Records" link="data:page/id,EZjYjFrGr3VQ2C8jx9l8" id="_ona8Ecr7LBRRXpukymA-11">
          <mxCell style="html=1;align=center;verticalAlign=top;rounded=1;absoluteArcSize=1;arcSize=10;dashed=1;fillColor=none;" parent="1" vertex="1">
            <mxGeometry x="780" y="384" width="140" height="40" as="geometry" />
          </mxCell>
        </UserObject>
        <mxCell id="2e3wcNazp82CeaKeVhul-1" value="" style="ellipse;html=1;shape=endState;fillColor=#000000;strokeColor=#000000;" parent="1" vertex="1">
          <mxGeometry x="980" y="270" width="30" height="30" as="geometry" />
        </mxCell>
        <mxCell id="C12eUxMGgNv5EMjZ2_0J-3" value="" style="endArrow=none;dashed=1;html=1;rounded=0;exitX=0;exitY=0.534;exitDx=0;exitDy=0;exitPerimeter=0;" parent="1" source="_ona8Ecr7LBRRXpukymA-2" edge="1">
          <mxGeometry width="50" height="50" relative="1" as="geometry">
            <mxPoint x="650" y="450" as="sourcePoint" />
            <mxPoint x="1040" y="321" as="targetPoint" />
          </mxGeometry>
        </mxCell>
        <mxCell id="nmcikMg4KhcZrkHjir1N-1" value="IOT Smart Lock - Reconnecting - UML Sub-State Diagram" style="shape=umlFrame;whiteSpace=wrap;html=1;width=350;height=20;boundedLbl=1;verticalAlign=middle;align=left;spacingLeft=5;fontColor=#000000;fillColor=default;" parent="1" vertex="1">
          <mxGeometry x="40" y="90" width="1080" height="430" as="geometry" />
        </mxCell>
      </root>
    </mxGraphModel>
  </diagram>
</mxfile>
